# xmcd
#
# Track frame offsets:
#	182
#	11397
#	24002
#	32555
#	44095
#	56785
#	68892
#	82277
#	91205
#	101542
#	112467
#	123980
#	136177
#	148242
#	158557
#	169485
#	186477
#	197602
#	210620
#	222912
#	233510
#	243685
#
# Disc length: 3415
#
# Revision: 1
# Processed by: cddbd v1.5.1PL0 Copyright (c) Steve Scherf et al.
# Submitted via: VisiTrax 2.9.5.180 - For more info visit www.synapsa.com
# Normalized: r0:DSETVAR1
#
DISCID=430d5516
DTITLE=Various Artist - A tribute to Hank Williams
DYEAR=1993
DGENRE=
TTITLE0=Nitty Gritty Dirt Band - Honky tonkin'
TTITLE1=Glen Campbell - Half as much
TTITLE2=Faron Young - Hey good lookin'
TTITLE3=George Jones - I just don't like this kind of livin'
TTITLE4=Jody Miller - Your cheatin' heart
TTITLE5=Slim Whitman - A mansion on the hill
TTITLE6=Gene Watson - I can't help it (if I'm still in love with you)
TTITLE7=Wanda Jackson - Jambalaya (on the bayou)
TTITLE8=Willie Nelson - There'll be no teardrops tonight
TTITLE9=Sonny James - Lovesick blues
TTITLE10=George Jones - Melba Montgomery - House of gold
TTITLE11=Tennesse Ernie Ford - May you never be alone
TTITLE12=Ronnie Hawkins - Nobody's lonesome for me
TTITLE13=Rose Maddox - Move it on over
TTITLE14=George Jones - I could never be ashamed of you
TTITLE15=Nitty Gritty Dirt Band - Roy Acuff - I saw the light
TTITLE16=Glen Campbell - I'm so lonesome I could cry
TTITLE17=Frank Ifield - Kaw-Liga
TTITLE18=Wanda Jackson - You win again
TTITLE19="Big Bill" Lister - There's a tear in my beer
TTITLE20=Ferlin Husk - Why should we try anymore
TTITLE21=Asleep at the Wheel - I'll never get out of this world alive
EXTD=
EXTT0=
EXTT1=
EXTT2=
EXTT3=
EXTT4=
EXTT5=
EXTT6=
EXTT7=
EXTT8=
EXTT9=
EXTT10=
EXTT11=
EXTT12=
EXTT13=
EXTT14=
EXTT15=
EXTT16=
EXTT17=
EXTT18=
EXTT19=
EXTT20=
EXTT21=
PLAYORDER=
